<mxfile host="app.diagrams.net" modified="2021-01-18T17:58:26.127Z" agent="5.0 (Macintosh; Intel Mac OS X 10_15_7) AppleWebKit/605.1.15 (KHTML, like Gecko) Version/14.0.2 Safari/605.1.15" etag="k_9OJSbMM6gK6W8KWRR-" version="14.2.4" type="github">
  <diagram id="9vD89Fk41sEcOHp9tHKu" name="Page-1">
    <mxGraphModel dx="788" dy="466" grid="1" gridSize="10" guides="1" tooltips="1" connect="1" arrows="1" fold="1" page="1" pageScale="1" pageWidth="827" pageHeight="1169" math="0" shadow="0">
      <root>
        <mxCell id="0" />
        <mxCell id="1" parent="0" />
        <mxCell id="DKPc9cMqqpSsX4SHYifh-1" value="Client Side&lt;br&gt;Form Submission" style="rounded=0;whiteSpace=wrap;html=1;" vertex="1" parent="1">
          <mxGeometry x="50" y="45" width="210" height="225" as="geometry" />
        </mxCell>
        <mxCell id="DKPc9cMqqpSsX4SHYifh-2" value="Server" style="whiteSpace=wrap;html=1;aspect=fixed;" vertex="1" parent="1">
          <mxGeometry x="340" y="45" width="230" height="230" as="geometry" />
        </mxCell>
        <mxCell id="DKPc9cMqqpSsX4SHYifh-3" value="Database" style="shape=cylinder3;whiteSpace=wrap;html=1;boundedLbl=1;backgroundOutline=1;size=15;" vertex="1" parent="1">
          <mxGeometry x="630" y="37.5" width="170" height="240" as="geometry" />
        </mxCell>
        <mxCell id="DKPc9cMqqpSsX4SHYifh-10" value="" style="shape=flexArrow;endArrow=classic;startArrow=classic;html=1;" edge="1" parent="1">
          <mxGeometry width="50" height="50" relative="1" as="geometry">
            <mxPoint x="270" y="170" as="sourcePoint" />
            <mxPoint x="330" y="170" as="targetPoint" />
          </mxGeometry>
        </mxCell>
        <mxCell id="DKPc9cMqqpSsX4SHYifh-11" value="" style="shape=flexArrow;endArrow=classic;startArrow=classic;html=1;entryX=0;entryY=0.594;entryDx=0;entryDy=0;entryPerimeter=0;" edge="1" parent="1" target="DKPc9cMqqpSsX4SHYifh-3">
          <mxGeometry width="50" height="50" relative="1" as="geometry">
            <mxPoint x="570" y="182.5" as="sourcePoint" />
            <mxPoint x="620" y="132.5" as="targetPoint" />
          </mxGeometry>
        </mxCell>
      </root>
    </mxGraphModel>
  </diagram>
</mxfile>
